# xmcd
#
# Track frame offsets: 
#        150
#        11083
#        27282
#        46098
#        62925
#        80363
#        93030
#        104874
#        115728
#        127825
#        138394
#        153234
#        168523
#        184815
#        204256
#        219079
#        234770
#        249244
#        263006
#        274621
#        284796
#        300611
#        311658
#
# Disc length: 4304 seconds
#
# Revision: 3
# Processed by: cddbd v1.5.2PL0 Copyright (c) Steve Scherf et al.
# Submitted via: ExactAudioCopy v1.1
#
DISCID=3210ce17
DTITLE=Various Artist - Jazz Ladies In A Soulful Mood
DYEAR=1999
DGENRE=Jazz
TTITLE0=Chris Connor - Lullaby Of Birdland
TTITLE1=Julie London - Don't Worry Bout Me
TTITLE2=Nina Simone - I Loves You Porgy
TTITLE3=Helen Carr - Got A Date With An Angel
TTITLE4=Betty Roche - September In The Rain
TTITLE5=Marilyn Moore - Trouble Is A Man
TTITLE6=Audrey Morris - Blue Turning Grey Over You
TTITLE7=Jerri Winters - Somebody Loves Me
TTITLE8=Carmen McRae - Tip Toe Gently
TTITLE9=Chris Connor - Gone With The Wind
TTITLE10=Julie London - A Foggy Day
TTITLE11=Marilyn Moore - Is You Is Or Is You Ain't My Baby?
TTITLE12=Helen Carr - You're Getting To Be A Habit With Me
TTITLE13=Nina Simone - Little Girl Blue
TTITLE14=Carmen McRae - If I'm Lucky
TTITLE15=Audrey Morris - I Go For That
TTITLE16=Betty Roche - Take The A Train
TTITLE17=Helen Carr - I'm Glad There Is You
TTITLE18=Chris Connor - How Long Has This Been Goin' On?
TTITLE19=Marilyn Moore - I Cried For You
TTITLE20=Julie London - You're Blase
TTITLE21=Carmen McRae - Easy To Love
TTITLE22=Nina Simone - He Needs Me
EXTD=YEAR: 1999 ID3G: 8
EXTT0=
EXTT1=
EXTT2=
EXTT3=
EXTT4=
EXTT5=
EXTT6=
EXTT7=
EXTT8=
EXTT9=
EXTT10=
EXTT11=
EXTT12=
EXTT13=
EXTT14=
EXTT15=
EXTT16=
EXTT17=
EXTT18=
EXTT19=
EXTT20=
EXTT21=
EXTT22=
PLAYORDER=
